<?xml version="1.0" encoding="UTF-8"?>
<svg viewBox="0 0 1141 800" xmlns="http://www.w3.org/2000/svg">
 <g fill-rule="evenodd">
  <path d="m440 0h701v710h-1t-1 2l-1 2v-4q0-4-28-4h-28v-1h56v-30h-10q-10-1-10-1h8q8 0 8-1h2q1-1 1-333l-1-333v-1h-964t2-1-80-1h-83l215-2q214-2 214-2z" fill="#676f77" stroke="#676f77"/>
  <path d="m555 314v-1h124v1l-1 1-1 4q-1 4-2 7v3h-1l-1-1h-5l-4 1-3 1h-1v-1q0-1 0-7-2-6-53-6-52-1-52-2z" fill="#5c6c77" stroke="#5c6c77"/>
  <path d="m187 692l-103-1h213v13h52l1 1h1v1q-1 0-1 14v14t-1 0-43 2h-43v1h-4q0-1-7-1h-7v-1h13v-29h-86v-1h-1v-1h124v-4l1-5v-1h-1l-3-1h-2q0-1-103-1z" fill="#7d754a" stroke="#7d754a"/>
  <path d="m938 402l1-1h1q0 1 6 1h6v-1h1v9q1 8 0 10v1h-8q0-1-3-1-4 0-4-9 0-8 0-9z" fill="#aaaaa8" stroke="#aaaaa8"/>
  <path d="m83 698v-5h209l3 1h1v1l-1 5v4h-212v-6z" fill="#f9f9f9" stroke="#f9f9f9"/>
  <path d="m293 316q1-18 5-18 4 1 4 41t-4 40-4-23q-2-23-1-40z" fill="#111" stroke="#111"/>
  <path d="m532 727l1-9v17h91v1h42q41 0 41 1h-82v15l1 14v1h-1q-1 1-1 1h-91v24h-1v-12q0-13-1-13v-15q-1-15-1-15v-1t2-9z" fill="#827a4d" stroke="#827a4d"/>
  <path d="m6 30l-1-24h1131v1l1 333q0 332-1 333h-22v-121q0-122-28-122-29 0-30-1l-2-1t3-1q2-1 2-2t-6-2-53-1l-47-1v-1q1-2 0-10v-9q0-1 1-5v-6q0-1 0-25v-24h-1l-1-1h-13l-1 5q0 5-1 26 0 21 1 21v4q0 4 1 4v1l-1 1q0 1 0 9 0 9 4 9 3 0 3 1h-29q-29-1-29-1t0-5v-5l4-4q3-3 5-6 0-2 0-2 0-1-1-2l-1-1v-2h-1v-1h-1v-2h-10q-10 0-11 0l-1 1v1l-1 1-1 1v1l-1 1-1 1v4l4 4q3 3 6 4t3 1q-1 0-1 4v7h-16q-16 1-25 1l-9 2h-4v2h1l1 1 2 1h2l-2 1-2 1h-3q-3 0-209 0h-206v243h-72l-16 1h-4v-114q0-115-1-116v-3q1-1 0-15v-14q1-1 0-81t-3-83q-3-2-122-2-120 0-123 2-3 3-3 82 0 80 1 84l2 3h1l1 1h1v1h-2q-1-1-2-1v-1l-1-1h-2v11l1 11v-1t3-1l2-2v1l-1 1v1h-1v1h-1v2q-2 1-2 2v1l-1-1q-1-1-1 0 0 2-1 116v115h-56v-311q0-308 1-308t0-24zm196-8l-2-3h462q463 0 459 5-4 6-6 6-2 1-2 128l-1 127v1h-299v-62h-597v-192q-1 0-5-2l-4-2h-1v-1h-1v-1q-1 0-3-4zm291 217v-1l125 1q124 0 124 39t0 39v46q-1 45-1 46 1 0 1 3v3h-250v-51q0-50 1-54v-4t1-1v-1h-1v-1h-1v-32q0-32 1-32zm519 171t1 0v5l-1 4v1h-8v-1l-1-5q0-4 3-4h3v-1h1v-1h-4q-3 0-6 0t-5-3l-1-3h-1v-1h-1v-2h-1v-1h1l2-4q3-4 13-4 11 0 13 5t-1 9-5 5-2 1z" fill="#bfb893" stroke="#bfb893"/>
  <path d="m1140 710h1v45q0 45-3 45h-4l-25-1h-25q0-1-2-1-1 0-1-2v-1q1 0 1 1v1h56v-28h-1v-1h-56v-1h1l2-1h54v-30h-57v-1h57v-21l1-2q1-2 1-2z" fill="#5a5e60" stroke="#5a5e60"/>
  <path d="m531 698v-6q1 0 1 6v5h1v2h2l-1 1q-1 0-1 6v6l-1 9q-2 9-2 9v1h-88q0-1-1-1h-1v-2t0-14v-15h1q1-1 1-1h89v-6z" fill="#857c4d" stroke="#857c4d"/>
  <path d="m455 580v-73h79q80 1 80 1h1l1 3q0 3 0 71 0 69-3 74t-5 7q-2 3-3 3h-1l-1 1-1 1h-2l-1 1-1 1h40v1h-168v-1h2v-1h-1v-1h-2l-1-1-2-1t-1 0q-1-1-5-6-4-6-5-80zm31 8v66t-6 0h-6l1-66q1-66 6-66t5 1 0 65zm101 0v-66h5q6 0 6 66v66h-1t-5 0h-5q-1 0 0-66zm-73 67v1h-11v-1h-1v-66q0-66 6-66 6 1 6 66t0 66zm28-65v66h-6q-5 0-5-1h-1l1-66q0-67 5-66 6 0 6 67zm16-2v-66h12v133h-12v-67z" fill="#272726" stroke="#272726"/>
  <path d="m1060 451h1v3q0 4-19 4t-20-4q0-3 18-3 19-1 20 0z" fill="#100500" stroke="#100500"/>
  <path d="m168 747v-11h84q7 0 7 1v28q-1 1 0 1t1 0v1q0 1-1 1h-90v22h-1v-11q0-11-1-11v-10h1v-11z" fill="#867d4c" stroke="#867d4c"/>
  <path d="m1116 674h2t10 1h10v30h-56q-1 1-1 1-1 0-1-1v-3l1-9q1-9 17-9t16-5q1-5 2-5z" fill="#8a814e" stroke="#8a814e"/>
  <path d="m808 768l1-1h88q1 0 1 1v15q0 14 1 14v1h87l-129 1h-129v-1h78v-1l1-10v-14q1-4 1-5z" fill="#807748" stroke="#807748"/>
  <path d="m891 41l63 1t0 117-66 118l-66 1v-1l-1-119q0-118 3-118 4 0 67 1zm44 136v27h-4q-3 0-3-28t4-27q3 1 3 28z" fill="#953100" stroke="#953100"/>
  <path d="m807 699l1-2v7h8l40 1q41 0 41 1 1 2 1 2v28h-83v1h-5q0-1-2-1h-1v-10q-1-11-1-11v-5q0-4-1-4v-1q1 0 1-2l1-2v-2z" fill="#887f4d" stroke="#887f4d"/>
  <path d="m514 655v1h-11v-1h-1v-66q0-66 6-66 6 1 6 66t0 66z" fill="#e3e3e3" stroke="#e3e3e3"/>
  <path d="m1081 720v-14h29q28 0 28 4v25h-57v-15z" fill="#fafafa" stroke="#fafafa"/>
  <path d="m534 706l1-1h44l44 1h1v29h-91v-23q0-6 1-6z" fill="#f7f7f7" stroke="#f7f7f7"/>
  <path d="m168 779v11h1v4q0 4 5 4h4v1h-53q-53-1-51-1h1v-1q1 0 1-1v-29h91l1-1q1 0 1 1-1 1-1 12z" fill="#867c4b" stroke="#867c4b"/>
  <path d="m625 767h88l1 1t1 14v14q1 1 1 1v1h12v1h-187v-1h82v-1h1v-29t1-1z" fill="#827949" stroke="#827949"/>
  <path d="m506 127v89h-131l1-89q0-89 65-89t65 89zm-110-6q4-1 4 20t-3 21q-4 0-4-20-1-21 3-21z" fill="#953100" stroke="#953100"/>
  <path d="m694 163h-3v-21q0-22 4-22t3 21q0 21-4 22z" fill="#080200" stroke="#080200"/>
  <path d="m806 725v-10t1 11v10h1q2 0 2 1h-1q-1 0-1 15v14h1v1l-1 1q0 1-1 5v4q-1 0-1-5v-4h-90v28h-1v-14q-1-14-1-14l-1-1v-1q1 0 1-11v-11l1-4q1-4 42-4h41v-1h8v-10z" fill="#857c4d" stroke="#857c4d"/>
  <path d="m4 768h71v29h-72v-14q1-14 1-15z" fill="#fbfbfb" stroke="#fbfbfb"/>
  <path d="m350 734l45 1h45v1q1 0 1-1 1 0 1 1v16q0 14 1 14v1h-1v1h-92v-2q0-2-1-2v-27h-86v-1h43q43-2 43-2 1 0 1 0z" fill="#837b4d" stroke="#837b4d"/>
  <path d="m625 690v-6h89v16q0 4-4 4h-85v-14z" fill="#f6f6f7" stroke="#f6f6f7"/>
  <g fill="#110500" stroke="#110500">
   <path d="m636 141v21h-4q-4 0-3-21 0-21 4-21t3 21z"/>
   <path d="m991 600q0-21 4-20 3 0 3 21t-4 21q-3 0-3-22z"/>
  </g>
  <path d="m512 490h4l6 1h18q12-1 12-1h14t26 1h25v16h-1l-1 1h-1t-80-1h-80v-16h28q29-1 30-1z" fill="#212121" stroke="#212121"/>
  <path d="m651 301v1h1v1h-1v1h-5q-3 0-46 0h-42v1h-4v-5h1v-1h1v-1h1v-1h1l6-5q6-6 14-9 9-3 18-5 8 0 18 2t18 6 13 10q5 5 6 5z" fill="#b8cb93" stroke="#b8cb93"/>
  <path d="m879 410h8v5q0 5 0 5h-8v-1q-1 0-1 0v-5q0-4 1-4z" fill="#e0dfdd" stroke="#e0dfdd"/>
  <path d="m498 314v-1h57v1q0 1 52 2 51 0 53 6 0 6 0 7v1h1l3-1 4-1h5l1 1h1v-3q1-3 2-7l1-4 1-1v-1h59q1 1 1 0l1 2q1 1 2 2v46q-1 45-1 46h-1q-1 1-122 1l-121 1v-49q1-48 1-48z" fill="#b9cc95" stroke="#b9cc95"/>
  <path d="m938 345l1-5h13l1 1h1v24q0 24 0 25v2q-1 0-2-1-2-1-8 0l-5 1h-1q-1 0-1-21 1-21 1-26z" fill="#b0b0ae" stroke="#b0b0ae"/>
  <path d="m944 684h45v9q1 9 1 9 0 1-1 2h-1v1h-44l-45 1q-1 0-1 1v1t-1-2q0-1-41-1l-40-1h40q41 0 41-4v-3l1-7q1-6 46-6z" fill="#857d4c" stroke="#857d4c"/>
  <path d="m320 674l16-1h15v1h28q29 1 29 6 0 4 16 4 16 1 17 10l1 8v3q0 1-1 1-1-1-1-1h-90l-1-1v-14l-1-15v-1h-28z" fill="#887e4c" stroke="#887e4c"/>
  <path d="m809 737h88l-1 15q0 14 0 15h-87v-1h-1v-14q0-15 1-15z" fill="#f8f8f8" stroke="#f8f8f8"/>
  <path d="m421 554v-112h222l1 114q0 115-2 115-1 1-2 0h-2v-1h-40l1-1 1-1h2l1-1 1-1h1q1 0 3-3 2-2 5-7t3-74q0-68 0-71l-1-3 1-1h1v-16h-25q-26-1-26-1v-3l-1-2q-1-2-2-4-2-3-7-6-6-3-15-4t-13 1q-3 0-8 4l-5 4h-1v2l-1 1-1 1v6q-1 0-30 1h-28v16h1v73q1 74 5 80 4 5 5 6 1 0 1 0l2 1 1 1h2v1h1v1h-2v1h-23q-23 1-24 1h-1v-1l-1-2q-1-2 0-115z" fill="#4d1a04" stroke="#4d1a04"/>
  <path d="m533 780v-12h91v29h-1v1h-86q-4 0-4-3v-15z" fill="#f7f7f7" stroke="#f7f7f7"/>
  <path d="m1104 675v1h-65q-65 0-65-90 0-88 65-89t65 88 0 90zm-113-75q0-21 4-20 3 0 3 21t-4 21q-3 0-3-22z" fill="#933000" stroke="#933000"/>
  <path d="m486 588v66t-6 0h-6l1-66q1-66 6-66t5 1 0 65z" fill="#e3e3e3" stroke="#e3e3e3"/>
  <path d="m1035 491l-61-1-1-26v-26h66q65 0 65 26 0 27-4 27-4 1-65 0zm25-40h1v3q0 4-19 4t-20-4q0-3 18-3 19-1 20 0z" fill="#923000" stroke="#923000"/>
  <path d="m991 690v-6h44q45 1 45 10v10h-89v-14z" fill="#f6f6f7" stroke="#f6f6f7"/>
  <path d="m587 588v-66h5q6 0 6 66v66h-1t-5 0h-5q-1 0 0-66z" fill="#ececec" stroke="#ececec"/>
  <path d="m674 39v-1h129v85q0 85 1 85t1 4q-1 4-66 4h-65v-89q0-88 0-88zm20 124h-3v-21q0-22 4-22t3 21q0 21-4 22z" fill="#963100" stroke="#963100"/>
  <path d="m259 750v-13h90v28q-1 1-45 1l-44 1v-1t-1 0v-16z" fill="#f6f6f6" stroke="#f6f6f6"/>
  <path d="m442 752v-15h88t1 15v15h-88v-1q-1 0-1-14z" fill="#f7f7f8" stroke="#f7f7f8"/>
  <path d="m293 498q1-17 5-16 4 0 4 40t-4 40-4-23q-2-23-1-41z" fill="#111" stroke="#111"/>
  <path d="m808 690v-6h89v16q0 4-41 4h-48v-14z" fill="#f6f6f7" stroke="#f6f6f7"/>
  <path d="m3 366l1-309v307q0 306 1 306v3h56v-115q1-114 1-116 0-1 1 0l1 1v118q0 118 5 123 5 4 7 6 2 1 2 2 0 0-1 2v3h-1v8l-1 1h-72l-1-1v-15q0-16 1-324z" fill="#6b6544" stroke="#6b6544"/>
  <path d="m442 767h89q1 0 1 13v12h1v3q0 3 4 3h4v1h-185v-1h85v-30h1v-1z" fill="#827949" stroke="#827949"/>
  <path d="m976 277h-4v-236h65q65 0 65 118 0 119-60 119-61 0-66-1zm17-128q4-1 4 27 1 28-3 28t-4-27q0-28 3-28z" fill="#953100" stroke="#953100"/>
  <path d="m993 149q4-1 4 27 1 28-3 28t-4-27q0-28 3-28z" fill="#100500" stroke="#100500"/>
  <path d="m202 22l-2-3h462q463 0 459 5-4 6-6 6-2 1-2 128l-1 127v-253h-1t-148-1h-148v-1q0-1-151-1l-151 1h-69q-68 0-148 0h-80v2q-1 0-5-2l-4-2h-1v-1h-1v-1q-1 0-3-4z" fill="#7d2d05" stroke="#7d2d05"/>
  <path d="m991 748v-11h89v29h-1t0 1h-88v-19z" fill="#f7f7f8" stroke="#f7f7f8"/>
  <path d="m552 489v1t-12 1h-13v-1h-1v-3l1-1 1-1v-1l5-2q4-2 9 0 4 0 7 3t3 4z" fill="#451705" stroke="#451705"/>
  <path d="m565 485l1 2v3h-14v-1q0-1-3-4t-7-3q-5-2-9 0l-5 2v1l-1 1-1 1v3h1v1h-5l-6-1h-4v-6l1-1 1-1v-2h1l5-4q5-4 8-4 4-2 13-1t15 4q5 3 7 6 1 2 2 4z" fill="#222020" stroke="#222020"/>
  <path d="m170 706h88v29h-89v-15q0-14 1-14z" fill="#fcfcfc" stroke="#fcfcfc"/>
  <path d="m513 30l151-1q151 0 151 1v1l-1 95q0 94-1 96v2h-297v-4q0-2-2-96l-1-94zm141 97v89h-66q-66 0-65-88 1-89 66-89t65 88zm20-88v-1h129v85q0 85 1 85t1 4q-1 4-66 4h-65v-89q0-88 0-88z" fill="#7a2800" stroke="#7a2800"/>
  <path d="m1081 736h57v30h-54l-2 1h-3q0-1 0-1h1v-29t1-1z" fill="#8b824f" stroke="#8b824f"/>
  <path d="m716 693v-9h90v8q0 9 1 9l-1 2q0 2-1 2h-87q-2-1-2-2l-1-1h1v-9z" fill="#89804d" stroke="#89804d"/>
  <path d="m396 121q4-1 4 20t-3 21q-4 0-4-20-1-21 3-21z" fill="#110500" stroke="#110500"/>
  <path d="m0 752v-48l1 1 1 1v3h1v26h35l36-1 1-14v-14h1v15q0 15-1 15h-72v16l1 15v1q0 1-1 15v14l36-1q35 0 36-1v-1h1v2q0 2-2 2t51 1h732l129-1h1l49 1h73l25 1h-1134v-48z" fill="#767779" stroke="#767779"/>
  <path d="m935 177v27h-4q-3 0-3-28t4-27q3 1 3 28z" fill="#100500" stroke="#100500"/>
  <path d="m1081 782v-14h56v1h1v28h-56v-1q0-1-1-1v-13z" fill="#fafafa" stroke="#fafafa"/>
  <path d="m814 126l1-95h148q148 1 148 1h1v254h-299v-64q1-2 1-96zm77-85l63 1t0 117-66 118l-66 1v-1l-1-119q0-118 3-118 4 0 67 1zm85 236h-4v-236h65q65 0 65 118 0 119-60 119-61 0-66-1z" fill="#832b00" stroke="#832b00"/>
  <path d="m351 706v-1h89q0 1 0 1h1v29h-46l-45-1v-14q0-14 1-14z" fill="#f7f7f7" stroke="#f7f7f7"/>
  <path d="m315 412v1q-1 0-1 1 0 0-3 2t-121 4q-118 0-119 0l-1-1q0-1-1-1h-1t-1-1h-1l-1-1v-1q0-1-1-3 0-2 0-82 0-79 3-82 3-2 123-2 119 0 122 2 2 3 3 83t0 81zm-22-96q1-18 5-18 4 1 4 41t-4 40-4-23q-2-23-1-40z" fill="#fcfcfc" stroke="#fcfcfc"/>
  <path d="m830 428h108q109 0 112 0h4l2 1q1 1 30 1 28 0 28 122v121h20q0 1-8 1h-10q-1 0-2 5 0 5-16 5t-17 9l-1 9v-8q0-9-45-10h-44v12q-1 0-1 3v3t-1-9v-9h-45q-45 0-46 6l-1 7v-13h-89v13l-1 2v2q-1 0-1-9v-8h-90v18h-1v-4l-1-3v-11h-89v13h-1v-6q0-6-46-7h-45v19h-1v-5q0-6-1-6v-8h-44q-44 0-45 9v9l-1-8q-1-9-17-10-16 0-16-4 0-5-29-6h-28v-1h57v-243h206q206 0 209 0h3l2-1 2-1zm-8 36v-27l66 1q66 0 65 26t-6 27-65 1h-59v-1h-1v-27zm213 27l-61-1-1-26v-26h66q65 0 65 26 0 27-4 27-4 1-65 0zm-614 63v-112h222l1 114q0 115-2 115-1 1-2 0h-193q-23 1-24 1h-1v-1l-1-2q-1-2 0-115zm390 4v115h-72q-72 1-77 0h-4v-115q1-114 76-114 76 0 76 0t1 114zm12-61v-1l65 1q66 1 66 89 1 90 0 90-2 0-66 0h-66v-90q0-89 1-89zm281 178v1h-65q-65 0-65-90 0-88 65-89t65 88 0 90z" fill="#822c02" stroke="#822c02"/>
  <path d="m990 766l1 1h90v29q0 2 1 2 2 0 2 1h-48l-49-1h2v-7h1v-11q0-12-1-13 0-1 1-1z" fill="#857c4b" stroke="#857c4b"/>
  <path d="m822 464v-27l66 1q66 0 65 26t-6 27-65 1h-59v-1h-1v-27zm88-13h1v3q0 4-19 4t-20-4q0-3 18-3 19-1 20 0z" fill="#902f00" stroke="#902f00"/>
  <path d="m77 740v-3h90v30h-89v-1t-1-11v-15z" fill="#f8f8f8" stroke="#f8f8f8"/>
  <path d="m1013 410v1h-1q-1-1-2-1h-1v-1h1v-1h-4q-3 0-6 0t-5-3l-1-3h-1v-1h-1v-2h-1v-1h1l2-4q3-4 13-4 11 0 13 5t-1 9-5 5q-1 0-1 1z" fill="#b6b5b0" stroke="#b6b5b0"/>
  <path d="m910 451h1v3q0 4-19 4t-20-4q0-3 18-3 19-1 20 0z" fill="#100500" stroke="#100500"/>
  <path d="m899 769v-1h90v30h-90v-1q-1 0-1-14v-14t1 0z" fill="#f7f7f7" stroke="#f7f7f7"/>
  <path d="m494 306v-1h244l1 4v4h-243q-2 0-2-3v-4z" fill="#f6f7f4" stroke="#f6f7f4"/>
  <path d="m991 696v8h89t1 1h1v1q0 1-1 15v15q-1 1-1 1h-89v22h-1v-11q0-11-41-12h-41v-1h81v-15q-1-14-1-14v-2h1q1-1 1-2v-3q0-3 1-3z" fill="#837b4d" stroke="#837b4d"/>
  <path d="m487 684h44v20h-89v-11q1-9 45-9z" fill="#f6f6f7" stroke="#f6f6f7"/>
  <path d="m709 300h8l3 1q4 1-12 1-15 0-11-1t12-1z" fill="#b1c38f" stroke="#b1c38f"/>
  <path d="m683 485v21h-4q-4 0-4-21t4-21 4 21z" fill="#090300" stroke="#090300"/>
  <path d="m878 420v-1t1 0v1h8t29 1h37l47 1q47 0 53 1t6 2-2 2q-3 1-3 1h-4q-3 0-112 0h-110l-2-1-1-1h-1v-2h4l9-2q9 0 25-1h16v-1z" fill="#b4b4b1" stroke="#b4b4b1"/>
  <path d="m313 679l3-5h32v1l1 15v14h-52v-13h1q0-1 2-1t6-3 7-8z" fill="#f1f1f1" stroke="#f1f1f1"/>
  <path d="m1006 410h6t0 1h1v4l-1 4v1h-8v-1l-1-5q0-4 3-4z" fill="#dbdad8" stroke="#dbdad8"/>
  <path d="m898 735h10v1h41q41 1 41 12v11h1v9q-1 0-1 12v11h-1v-23h-90v1q-1 0-1 0v-1q0-1-1-1h-1q0-1 0-15l1-15h-82v-1h83v-1z" fill="#847b4c" stroke="#847b4c"/>
  <path d="m625 752v-15h85q4 0 4 3v15q0 11-1 11v1h-87v-1l-1-14z" fill="#f8f8f8" stroke="#f8f8f8"/>
  <path d="m338 141v21h-4q-3 0-4-21 0-21 4-21t4 21z" fill="#080200" stroke="#080200"/>
  <path d="m811 558v115h-72q-72 1-77 0h-4v-115q1-114 76-114 76 0 76 0t1 114zm-128-73v21h-4q-4 0-4-21t4-21 4 21z" fill="#973100" stroke="#973100"/>
  <path d="m0 352v-352h440t-214 2l-215 2h83q82 0 80 1t-2 1h-167l1 24q1 24 0 24t-1 308v308q-1 0-1-306v-307l-1 309q-1 308-1 324v15l1 1v3h-1v-3l-1-1-1-1v-352z" fill="#64686c" stroke="#64686c"/>
  <path d="m823 497v-1l65 1q66 1 66 89 1 90 0 90-2 0-66 0h-66v-90q0-89 1-89zm109 125h-3v-22q0-20 3-21 4 0 4 21 0 22-4 22z" fill="#943000" stroke="#943000"/>
  <path d="m493 310v-4h1v4q0 3 2 3h2v1t-1 48v49l121-1q121 0 122-1h1q1 0 1 3v3h-250v-51q0-50 1-54z" fill="#848069" stroke="#848069"/>
  <path d="m315 442v2q1 1 1 116v114l-3 5q-3 5-7 8t-6 3-2 1h-217v5l-1 6h-2v-1l-1-2v-5q1-2 1-2 0-1-2-2-2-2-7-6-5-5-5-123v-119q0-1 1-3l1-2q1-1 1-1h1t0-1q1-1 1-1l2-2q2-2 5-2 3-2 114 0 112 0 117 4 5 3 6 6 1 2 2 2zm-22 56q1-17 5-16 4 0 4 40t-4 40-4-23q-2-23-1-41z" fill="#fcfcfc" stroke="#fcfcfc"/>
  <path d="m899 706l45-1h44v1t1 14v15h-91v-28q0-1 1-1z" fill="#f7f7f7" stroke="#f7f7f7"/>
  <path d="m3 752v-16h72l1 4q0 4 1 4v11q1 11 1 11v1h-2v27h-1v-26h-71v-1l-1-15z" fill="#867d4d" stroke="#867d4d"/>
  <path d="m81 696v-5h3l103 1q103 0 103 1h-207v11h88v1h1v1h-2q-1 0-1 14v15h76v1h-77v22h-1v-21h-90v7q-1 0-1-4l-1-4v-1q1 0 1-15v-14h-1l1-1v-8h1v2l1 2v1h2l1-6z" fill="#80784d" stroke="#80784d"/>
  <path d="m716 782v-14h90v4q0 5 1 5v10l-1 10v1h-90v-1t-1-1h1v-14z" fill="#f7f7f8" stroke="#f7f7f8"/>
  <path d="m315 413v13q1 14 0 15v1q-1 0-2-2-1-3-6-6-5-4-117-4-111-2-114 0-3 0-5 2l-2 2q-1 0-1 0v1t-1 1h-1v1h-1l-1 1-1-11v-11h2l1 1v1h2t1 1h1l1 1q1 0 119 0 118-2 121-4t3-2q0-1 1-1z" fill="#cacaca" stroke="#cacaca"/>
  <path d="m169 779v-11h89v30h-84q-5 0-5-4v-15z" fill="#f8f8f8" stroke="#f8f8f8"/>
  <path d="m225 38h65q66 0 67 4t0 88q-1 85-64 86-64 0-67 1h-2v-89q0-90 1-90zm113 103v21h-4q-3 0-4-21 0-21 4-21t4 21z" fill="#933000" stroke="#933000"/>
  <path d="m654 127v89h-66q-66 0-65-88 1-89 66-89t65 88zm-18 14v21h-4q-4 0-3-21 0-21 4-21t3 21z" fill="#953100" stroke="#953100"/>
  <path d="m714 700v-5l1 3v4l1 1q0 1 2 2h1l-1 1q-2 0-2 14v15h82v1h-41q-41 0-42 4l-1 4v-4q0-3-4-3h-3q0-1-41-1h-42v-30h1l41-1 40-1h4q4 0 4-4z" fill="#877e4d" stroke="#877e4d"/>
  <path d="m533 694v-10h45q46 1 46 7v6h1v7h81l-40 1-41 1h-2l-44-1h-46v-11z" fill="#857d4c" stroke="#857d4c"/>
  <path d="m932 622h-3v-22q0-20 3-21 4 0 4 21 0 22-4 22z" fill="#0a0300" stroke="#0a0300"/>
  <path d="m493 239v-1l125 1q124 0 124 39t0 39q-1-1-2-2 0-1-2-1l-1-1q1 0 1-4v-5q0-1-1-32l-1-30h-113q-113 0-119 0h-7q-1 0-1 30v31h-1v1h-2v-1h-1v-32q0-32 1-32z" fill="#8e886c" stroke="#8e886c"/>
  <path d="m558 588v-66h12v133h-12v-67z" fill="#eee" stroke="#eee"/>
  <path d="m542 300h2l2 2q3 0-12 0-16 0-14 0 3-2 12-2t10 0z" fill="#b1c38f" stroke="#b1c38f"/>
  <path d="m882 390h10v2h1v1h1v2l1 1q1 1 1 2 0 0 0 2-2 3-5 6l-4 4h-8t-3-1-6-4l-4-4v-4l1-1 1-1v-1l1-1 1-1v-1l1-1q1 0 11 0z" fill="#b4b3af" stroke="#b4b3af"/>
  <path d="m3 708v-2h72v29h-72v-27z" fill="#fcfcfc" stroke="#fcfcfc"/>
  <path d="m718 706l1-1h86v1q1 0 1 4v25h-90v-15q0-14 2-14z" fill="#f8f8f8" stroke="#f8f8f8"/>
  <path d="m259 764v2q1 0 1 0v1l44-1q44 0 45-1v-1q1 0 1 2v17q0 15 3 15h3v1h-178v-1h80v-32q0-2 1-2z" fill="#827949" stroke="#827949"/>
  <path d="m542 590v66h-6q-5 0-5-1h-1l1-66q0-67 5-66 6 0 6 67z" fill="#eee" stroke="#eee"/>
  <path d="m350 783v-15h91v30h-88q-3 0-3-15z" fill="#f7f7f7" stroke="#f7f7f7"/>
  <path d="m444 30h69l1 94q2 94 2 96v4h-300v-194h80q80 0 148 0zm-219 8h65q66 0 67 4t0 88q-1 85-64 86-64 0-67 1h-2v-89q0-90 1-90zm281 89v89h-131l1-89q0-89 65-89t65 89z" fill="#842c00" stroke="#842c00"/>
  <path d="m954 392v4q-1 4-1 5h-1v1h-6q-6 0-6-1h-1v-1q-1 0-1-4v-4h1l5-1q6-1 8 0 1 1 2 1z" fill="#e5e5e4" stroke="#e5e5e4"/>
  <path d="m497 242h7q6 0 119 0h113l1 30q1 31 1 32v1h-180v-1h42q43 0 46 0h5v-1h1v-1h-1v-1q-1 0-6-5-5-6-13-10t-18-6-18-2q-9 2-18 5-8 3-14 9l-6 5h-1v1h-1v1h-1v1h-1v5h-30l-29 1h-2v-1l1-1h1v-1h1v-31q0-30 1-30zm45 58h2l2 2q3 0-12 0-16 0-14 0 3-2 12-2t10 0zm167 0h8l3 1q4 1-12 1-15 0-11-1t12-1z" fill="#85a9d5" stroke="#85a9d5"/>
 </g>
</svg>
